/* XPM */
static char *_765874502_Rectangle_73[] = {
/* columns rows colors chars-per-pixel */
"32 32 62 1 ",
"  c #1E4C04",
". c #1B4808",
"X c #1D4A16",
"o c #1C431C",
"O c #244E04",
"+ c #264D09",
"@ c #294F0F",
"# c #225101",
"$ c #2C5404",
"% c #25510C",
"& c #2E540D",
"* c #365E05",
"= c #31570C",
"- c #345A0C",
"; c #395E0C",
": c #244A14",
"> c #2A4E14",
", c #22461D",
"< c #25491D",
"1 c #2B4E1D",
"2 c #2D5214",
"3 c #2F5913",
"4 c #27501C",
"5 c #2E511C",
"6 c #315614",
"7 c #355A13",
"8 c #395D14",
"9 c #32551C",
"0 c #35591A",
"q c #3A5C1B",
"w c #3D6405",
"e c #3C620A",
"r c #3D6112",
"t c #3E611B",
"y c #1D4421",
"u c #234622",
"i c #264922",
"p c #2B4D23",
"a c #2C4D28",
"s c #304F25",
"d c #2E5123",
"f c #2F5028",
"g c #335424",
"h c #385727",
"j c #365823",
"k c #3B5B25",
"l c #355529",
"z c #38572C",
"x c #3C5B2A",
"c c #3F6025",
"v c #416704",
"b c #446A06",
"n c #41660D",
"m c #44690B",
"M c #486C0C",
"N c #426514",
"B c #466913",
"V c #42641A",
"C c #405F2B",
"Z c #416223",
"A c #43612C",
"S c #436031",
/* pixels */
"yoX20jgd96$# .X<y<4ddjjl4%O :<yi",
"iu4lcSccqnw*$O:<ii4gkCSxc-$O:<iy",
"difzxczcNvvw-65ppdjgxxSAc7$+:oid",
"pdglzfa4=wvnqjklkkkklzxAk3>::<5t",
"1g9gday<>=;qxCCxxCkl99jxklsii10B",
"6701yyuo:>6jxxxjlzlg269khhgaa57n",
"--6<uyyu,,1sljggpip>=-79lkkkgd7e",
";*->u,iii<<15s>1,,,=*;-9gzCxzg6;",
"mbv->1<i>>>1<ii11>&*ww-9lhACk990",
"NMvw=2957;=>,upp2=*vbB89gzxxlgjk",
"0Nnw;7j08;-2iagjq8ebBVqjlhklgglx",
"1077qqkk0779lzhxctVVVZZxhlllpghx",
",i19gkkkj9ggkCxCxxxZCCCCkhgpddgk",
",uuiahCCzgglxxkhkkxxxxxxkj0760qj",
">iuuigCCCssllgasdlkxCCzhjqVr;*7q",
"6siuigxChgg99p<u<1lxxxhg9VBmv*60",
"0hlspalh0978q91,uupghhgd9embw-61",
"kxxxgsa>6-emNq01uuiig9gp9;wv;01<",
"hCAAxlu,>=vbmNqgi<,ppggs9;--0gpu",
"gxAAxfuo:&ebbNqg5>22ghhh90769gau",
"pgCCxgi,<97ewe099=*7qxCCkq999gpp",
"19qCxgp,pa06==9g0-;8CCCCklgspg99",
"778VZx9ppa1>@>9907qqCCCkllgip<>7",
"7*eMBq9pgg5<,1pg990kCCkjg9giu,>=",
"8*vvb89gaggapup5apglxkgg59ggai6-",
"07wve->alkkhlapiiuuallp<<flklg90",
"s98;*=<iaxAAxgauouuagg<uigkACxkj",
"is9-=>,pgkAAAkg,,<>6921<phCAAxhg",
"ui16061psgxZCxg19q8r;=21sxAAChap",
",iipgg9g9ggxCxgg0Nmbw-65gkxxkg<u",
",<<gggap1dghklap7nMv-=59llgg061<",
"iggggsiiiigjgsp<2;v*&<19gap1==65"
};
