/* XPM */
static char *_08fde34ea654727aa710e49848acce1[] = {
/* columns rows colors chars-per-pixel */
"32 32 185 2 ",
"   c None",
".  c #210F04",
"X  c #221106",
"o  c #391C08",
"O  c #321B16",
"+  c #3E3D2E",
"@  c #373836",
"#  c #482A19",
"$  c #542F15",
"%  c #4E381A",
"&  c #5C361E",
"*  c #54321A",
"=  c #6D3B14",
"-  c #4B3A2C",
";  c #493B23",
":  c #573F2F",
">  c #593924",
",  c #4F3F35",
"<  c #523E30",
"1  c #633B24",
"2  c #61451E",
"3  c #46422E",
"4  c #5A4B2D",
"5  c #55422A",
"6  c #5D473C",
"7  c #5B4935",
"8  c #57533E",
"9  c #5F5134",
"0  c #6A442B",
"q  c #604D2D",
"w  c #744928",
"e  c #784928",
"r  c #6D4B34",
"t  c #714B33",
"y  c #6C5E3A",
"u  c #6B5738",
"i  c #725D35",
"p  c #75523A",
"a  c #7C543D",
"s  c #77583F",
"d  c #795A39",
"f  c #6F613D",
"g  c #7A643E",
"h  c #75673C",
"j  c #564A44",
"k  c #565542",
"l  c #5B5546",
"z  c #57574A",
"x  c #6B4E47",
"c  c #6B5345",
"v  c #625B45",
"b  c #665646",
"n  c #785D4A",
"m  c #7F5B51",
"M  c #6B6547",
"N  c #76634A",
"B  c #666754",
"V  c #6A6959",
"C  c #6C6055",
"Z  c #756954",
"A  c #736E5D",
"S  c #536C67",
"D  c #776760",
"F  c #7D6F68",
"G  c #7D7B64",
"H  c #757765",
"J  c #89572C",
"K  c #845536",
"L  c #85593B",
"P  c #945E3A",
"I  c #9F642F",
"U  c #8E603D",
"Y  c #886636",
"T  c #9C6234",
"R  c #95633D",
"E  c #9E6B3F",
"W  c #986B37",
"Q  c #8B703E",
"!  c #97773A",
"~  c #A67C3F",
"^  c #A77835",
"/  c #B17831",
"(  c #815A43",
")  c #835F53",
"_  c #84664A",
"`  c #946541",
"'  c #996642",
"]  c #9E6A43",
"[  c #877140",
"{  c #8B774A",
"}  c #987F40",
"|  c #917948",
" . c #8B6857",
".. c #836C5E",
"X. c #846653",
"o. c #897857",
"O. c #95715C",
"+. c #A26C44",
"@. c #A67145",
"#. c #A97347",
"$. c #AC7548",
"%. c #A87F4B",
"&. c #B2794A",
"*. c #B97D49",
"=. c #8A6E63",
"-. c #8C7463",
";. c #86796F",
":. c #997060",
">. c #A17C6B",
",. c #A18735",
"<. c #BE973B",
"1. c #C28439",
"2. c #E0973E",
"3. c #CCA33A",
"4. c #95834C",
"5. c #998E5F",
"6. c #A68349",
"7. c #BB814E",
"8. c #B49C45",
"9. c #A88753",
"0. c #AB9B5E",
"q. c #B29A5A",
"w. c #898166",
"e. c #97866C",
"r. c #8A8B76",
"t. c #908B7D",
"y. c #94937C",
"u. c #A6806F",
"i. c #B2886A",
"p. c #A78F74",
"a. c #B08777",
"s. c #B28F75",
"d. c #AF927A",
"f. c #B99071",
"g. c #B8A465",
"h. c #BFB368",
"j. c #ADAA7E",
"k. c #C0844F",
"l. c #C78E42",
"z. c #DA9F44",
"x. c #CF9E51",
"c. c #DEA347",
"v. c #CDB052",
"b. c #EAA544",
"n. c #EDAB49",
"m. c #E9B74B",
"M. c #C29C7D",
"N. c #C1957B",
"B. c #C7B268",
"V. c #FEC44B",
"C. c #FBD54C",
"Z. c #E0C353",
"A. c #DDCA61",
"S. c #DDC475",
"D. c #E1C97C",
"F. c #9B9B84",
"G. c #9C9C8B",
"H. c #959681",
"J. c #A28C82",
"K. c #A59083",
"L. c #A4958B",
"P. c #A39A88",
"I. c #9CA492",
"U. c #A4A58B",
"Y. c #B6B498",
"T. c #91A4A9",
"R. c #BABBA3",
"E. c #A9AFB7",
"W. c #C39E83",
"Q. c #CB9C82",
"!. c #CDA386",
"~. c #D7A785",
"^. c #DBB293",
"/. c #ECBA99",
"(. c #E7BB9B",
"). c #F1C19D",
"_. c #D3D3BA",
"`. c #E9C4A2",
"'. c #F7CAA9",
"]. c #F9DAB7",
"[. c #FFE0B9",
"{. c #C8D0C6",
"}. c #E3D7CF",
"|. c #FED8C1",
" X c #E0E2CC",
/* pixels */
"                                                                ",
"                                                                ",
"                        ..-.X.K.                                ",
"                    o $ e J I E s                               ",
"                  ` ` $.$.&.7.*.T K   L w N                     ",
"                X U $.&.$.] R ] $.` d ` T O.                    ",
"                . ` &.$.$.@.@.+.] #.#.&.J b                     ",
"                * +.@.R R @.7.7.$.+.@.#.#                       ",
"              L.w +.U p r t ' k.k.@.+.' #                       ",
"              L.1 0 p i.!.X.0 P T E +.a #                       ",
"                o ( s.W.(.^.( : c ` ` t                         ",
"                - M.|.T.H '.M.S E.u.>                           ",
"                  >.'.{.U.].`.I.}.a.O                           ",
"                    O.'.[.].`./.N.)                             ",
"                  7 6 X.Q./.Q.:.x b                             ",
"                r.U.y.l c m x j N 6.! %                         ",
"              t.G  X_.U.H l b 9.x.n.b.2                         ",
"              | Q G._.Y.y.h.Z.c.b.c.Q v +                       ",
"            P.<.3.v G.Y.H.B.C.m.n.^ k t.8                       ",
"            9 3.C.! A F.F.F.A.C.z.d H U.k z                     ",
"            < Y ,.} Z V w.e.q.8.! N B B 7 C                     ",
"             .W.o.v G G Z u u g ~ Y v p.f.=.                    ",
"             .).d.V F.Y.y.{ ~ l.2./ _ ^.~...                    ",
"            J.a < l r.U.R.S.V.n.1.W 5 6 (                       ",
"                n y M B F.j.v.<.i y 4 -.                        ",
"                Z 4.g.{ 8 @ 3 h 5.0.i                           ",
"                , | D.q.4 ; - f B.B.u                           ",
"                D w 9.g       i [ %.1                           ",
"                X.T K q         % P K #                         ",
"              ;.= T n           F t T $                         ",
"              K.& 0               ;.r &                         ",
"                                                                "
};
