/* XPM */
static char *_765874702_Group_42[] = {
/* columns rows colors chars-per-pixel */
"32 32 154 2 ",
"   c #07070F",
".  c #13170E",
"X  c #070A12",
"o  c #0D0D12",
"O  c #0D1113",
"+  c #121314",
"@  c #1B1A16",
"#  c #1D1B18",
"$  c #211E17",
"%  c #231D1A",
"&  c #2B181E",
"*  c #311B1F",
"=  c #163B04",
"-  c #1B2115",
";  c #173A11",
":  c #1E351B",
">  c #1B3C1A",
",  c #24211A",
"<  c #253A14",
"1  c #21331B",
"2  c #24391A",
"3  c #2E0F24",
"4  c #371425",
"5  c #351D20",
"6  c #3B2221",
"7  c #2D3F20",
"8  c #431A28",
"9  c #402522",
"0  c #432E20",
"q  c #4E2F24",
"w  c #4A2028",
"e  c #542529",
"r  c #542929",
"t  c #5A2A2A",
"y  c #523225",
"u  c #5B3A25",
"i  c #5F302B",
"p  c #623D27",
"a  c #62312B",
"s  c #653F29",
"d  c #6E3530",
"f  c #763B31",
"g  c #7D3F32",
"h  c #1B4101",
"j  c #1E4C07",
"k  c #1E4A17",
"l  c #18431C",
"z  c #204306",
"x  c #234D04",
"c  c #2D5404",
"v  c #25510C",
"b  c #375E07",
"n  c #355B0C",
"m  c #3A5F0C",
"M  c #234413",
"N  c #2E4215",
"B  c #234B12",
"V  c #2A4E15",
"C  c #23451D",
"Z  c #2A441D",
"A  c #264A1E",
"S  c #2B4E1D",
"D  c #2D5315",
"F  c #2D511C",
"G  c #325614",
"H  c #355A13",
"J  c #395D12",
"K  c #32551B",
"L  c #355A1A",
"P  c #395B1A",
"I  c #3D6406",
"U  c #3B6109",
"Y  c #1B4620",
"T  c #234622",
"R  c #254922",
"E  c #2B4D23",
"W  c #2E5122",
"Q  c #335424",
"!  c #385726",
"~  c #375824",
"^  c #3A5B23",
"/  c #355628",
"(  c #38572C",
")  c #3C5B2A",
"_  c #3F6025",
"`  c #406703",
"'  c #436A06",
"]  c #41660B",
"[  c #486C0C",
"{  c #426513",
"}  c #436519",
"|  c #405F2B",
" . c #664128",
".. c #6A4328",
"X. c #6E4A2E",
"o. c #664D30",
"O. c #6A4E31",
"+. c #7A4230",
"@. c #724E32",
"#. c #735535",
"$. c #765936",
"%. c #795B37",
"&. c #7A5F3B",
"*. c #43612C",
"=. c #7C623C",
"-. c #834333",
";. c #864932",
":. c #8D4E33",
">. c #8A5530",
",. c #925235",
"<. c #945932",
"1. c #A65F37",
"2. c #A35A38",
"3. c #A46236",
"4. c #A86337",
"5. c #AD6439",
"6. c #B26536",
"7. c #B76837",
"8. c #B4673A",
"9. c #B66B3A",
"0. c #BA6D3B",
"q. c #BE723D",
"w. c #C26F3B",
"e. c #C4733D",
"r. c #C9763E",
"t. c #CD793E",
"y. c #8C6B41",
"u. c #937244",
"i. c #B16E46",
"p. c #BE7540",
"a. c #C17740",
"s. c #C87640",
"d. c #C37942",
"f. c #C87B41",
"g. c #CC8A4C",
"h. c #D98345",
"j. c #D28749",
"k. c #D38C4D",
"l. c #D2904F",
"z. c #DA924F",
"x. c #CB9955",
"c. c #D39C57",
"v. c #DE9853",
"b. c #D79E58",
"n. c #E79651",
"m. c #E19D55",
"M. c #E6A459",
"N. c #E9A45A",
"B. c #E2AA5F",
"V. c #EAA95D",
"C. c #F3AE5E",
"Z. c #ECAE60",
"A. c #F6B563",
"S. c #FCB764",
/* pixels */
"Y l k D L ~ Q Q F M z h = = ; > > > k M Z A Z W F v x j B A R Y ",
"E T E / _ ) _ _ N $ @ . . . . + + + + + @ , , 7 ^ n c x B A T R ",
"E R Q / ) ( ( C o % #.u.y.y.y.y.y.y.y.u.@.5 , - Z H c x B C R F ",
"E W Q / ( Q : @ % o.c.S.M.M.M.M.M.N.N.C.i.t 6 , # < V B C R F P ",
"W K K Q E : @   o.c.B.l.0.p.p.p.q.q.d.f.>.t a 6 @ $ 2 Z A S P { ",
"D H K S : o # o.x.A.l.9.6.6.6.6.6.8.6.7.4.;.d r 6 , - 1 E K H ] ",
"n n D S % % O.b.A.g.9.6.9.9.9.9.9.9.9.9.e.9.-.d a 6 % % Q F H m ",
"m b n F o o.b.Z.l.9.7.9.9.9.9.9.9.9.9.9.0.0.9.;.t t 6 # ( Q K m ",
"] ' I b o #.n.g.q.6.9.9.9.9.9.9.9.9.9.9.9.9.e.3.,.5.i + ! K K P ",
"{ [ ' I +  .r.7.6.9.9.9.9.9.9.9.9.9.9.9.9.9.9.q.w.a.p + / Q ~ ^ ",
"P { ] I o $.v.p.6.9.9.9.9.9.9.9.9.9.9.9.9.9.9.q.5.-.9 @ / W ~ ) ",
"S K H H o =.Z.d.6.9.9.9.9.9.9.9.9.9.9.9.9.9.9.t.0.g 5 # W W ! ) ",
"C R E F o #.v.q.6.9.9.9.9.9.9.9.9.9.9.9.9.9.0.5.:.d 5 @ W W ! ) ",
"l T T T + s s.0.9.9.9.9.9.9.9.9.9.9.9.9.9.0.e.+.3 4 & # D L P ~ ",
"V R T T o X.j.e.9.9.9.9.9.9.9.9.9.9.9.9.9.9.q.,.t e 5 # U n H L ",
"G Q E T o &.V.d.6.9.9.9.9.9.9.9.9.9.9.9.9.9.9.r.0.-.6 @ I b n K ",
"P ! ( E o &.Z.d.6.9.9.9.9.9.9.9.9.9.9.9.9.9.9.e.4.+.* @ ` n G F ",
"^ ) | | o O.j.0.6.9.9.9.9.9.9.9.9.9.9.0.9.9.9.0.6.2.y + U K S A ",
"! | *.| + p w.0.q.0.0.9.9.9.9.9.9.9.9.9.9.9.9.9.q.t...+ K Q E T ",
"Q ! *.*.o s e.0.q.e.q.0.9.9.9.9.9.9.9.9.9.9.9.9.9.r. .O K Q E T ",
"E ( ) | O s r.e.>. .;.6.r.q.8.9.9.9.9.9.9.9.9.0.0.e. .+ Q Q W E ",
"S K P | +  .s.r.u X 5 +.3.8.0.9.9.9.0.9.9.9.9.9.0.r. .O W W K K ",
"G n J } O  .r.s.s X + + 0 1.e.9.9.9.9.9.9.9.9.9.0.s...+ R R V G ",
"J b ] [ + s e.e.<.s ..u ..4.w.9.9.9.9.9.9.9.9.0.6.2.q + R Z V n ",
"J b ` ` + s w.0.q.r.e.r.e.9.9.9.9.9.9.9.9.9.9.r.5.f 5 @ E R F n ",
"K J I ` + p w.9.9.0.0.0.0.0.9.9.9.9.9.9.9.9.8.r.9.-.6 @ / Q K P ",
"E Q J m o @.z.a.6.9.9.9.9.9.9.9.9.9.9.9.9.9.0.,.e 8 & # *.) ! ! ",
"E E K n o $.m.a.6.9.9.9.9.9.9.9.9.9.9.9.9.q.e.+.4 w 6 @ *.) ! Q ",
"T T V K +  .s.0.9.9.9.9.9.9.9.9.9.9.9.9.9.9.0.4.2.9.s + ) ! W R ",
"Z T E F o @.k.p.7.9.9.9.9.9.9.9.9.9.9.9.9.9.9.e.e.6.y + ^ Q R R ",
"R A E W o %.N.s.7.0.0.0.0.0.0.0.0.0.0.q.0.0.0.r.5.f 5 @ K D V A ",
"R E Q Q o X.h.r.e.e.e.e.e.e.e.e.e.e.e.e.e.e.e.f.8.-.5 @ G n G F "
};
