/* XPM */
static char *_765874775_Group_44[] = {
/* columns rows colors chars-per-pixel */
"32 32 138 2 ",
"   c #060E06",
".  c #050808",
"X  c #071106",
"o  c #09140B",
"O  c #0E1A0D",
"+  c #121E0C",
"@  c #051918",
"#  c #15210D",
"$  c #162B0B",
"%  c #1E3203",
"&  c #142610",
"*  c #182814",
"=  c #253906",
"-  c #25380F",
";  c #233416",
":  c #22351A",
">  c #173E3B",
",  c #1E4C04",
"<  c #1B4808",
"1  c #1D4A16",
"2  c #1D421B",
"3  c #244E04",
"4  c #225101",
"5  c #2C5404",
"6  c #25510C",
"7  c #2E540D",
"8  c #365E05",
"9  c #32560D",
"0  c #345B0C",
"q  c #395E0C",
"w  c #234613",
"e  c #234A13",
"r  c #2A4E14",
"t  c #22451D",
"y  c #25491D",
"u  c #2A4D1D",
"i  c #2D5214",
"p  c #2F5913",
"a  c #27501C",
"s  c #2D511D",
"d  c #315614",
"f  c #355A14",
"g  c #3A5D14",
"h  c #32551C",
"j  c #35591A",
"k  c #3A5C1C",
"l  c #3D6405",
"z  c #3C620B",
"x  c #3E6212",
"c  c #1D4421",
"v  c #0F403B",
"b  c #10413E",
"n  c #234622",
"m  c #264922",
"M  c #2B4D23",
"N  c #2E4D28",
"B  c #304F25",
"V  c #2E5122",
"C  c #2F5028",
"Z  c #335424",
"A  c #385725",
"S  c #365823",
"D  c #3A5A25",
"F  c #355529",
"G  c #38572C",
"H  c #3C5B2A",
"J  c #3F6025",
"K  c #416704",
"L  c #446A06",
"P  c #41660D",
"I  c #44690B",
"U  c #486C0C",
"Y  c #426514",
"T  c #466913",
"R  c #426419",
"E  c #405F23",
"W  c #415F2B",
"Q  c #426421",
"!  c #43612C",
"~  c #436031",
"^  c #0B4743",
"/  c #104541",
"(  c #124A46",
")  c #38504E",
"_  c #1A6B64",
"`  c #2B7C77",
"'  c #337C77",
"]  c #357D79",
"[  c #397D79",
"{  c #40514F",
"}  c #435351",
"|  c #4F5453",
" . c #20847C",
".. c #218C84",
"X. c #23958C",
"o. c #259A91",
"O. c #26A298",
"+. c #28A69D",
"@. c #28A89E",
"#. c #1EB7AF",
"$. c #24A8A0",
"%. c #29ADA4",
"&. c #2CB4AB",
"*. c #2CB9AF",
"=. c #26BBB2",
"-. c #2BBDB5",
";. c #2FC0B7",
":. c #26C3BB",
">. c #2EC2BA",
",. c #31C4BC",
"<. c #3FC0B9",
"1. c #2DCDC4",
"2. c #32CCC4",
"3. c #3DC9C1",
"4. c #39D1C9",
"5. c #40D1C9",
"6. c #4DD2CB",
"7. c #51D3CB",
"8. c #49D8D0",
"9. c #53D7D0",
"0. c #5BD7D0",
"q. c #61DAD3",
"w. c #6ED9D3",
"e. c #7EDDD6",
"r. c #7BDFD9",
"t. c #4BE2D9",
"y. c #52E1D9",
"u. c #4CEAE1",
"i. c #50E8E1",
"p. c #51F2E7",
"a. c #59F1E7",
"s. c #71EFE7",
"d. c #82E2DC",
"f. c #8FE4DF",
"g. c #82E8E4",
"h. c #93F3EF",
"j. c #94F4F2",
"k. c #9CF3F0",
/* pixels */
"c 2 1 i j S S V h p 6 4 , < 1 n c m a s V S F F a 6 3 , e m m c ",
"m n a F J ~ J J R z l 8 5 3 e m m y a S A ! ~ J S z 5 4 e y m m ",
"V m C G H G G J Y L K l 8 i s M M V Z S A H ~ ! J f 5 3 e t m a ",
"M V Z F G C M a 9 l K z k D D A A H D D F G H ! J h r 1 t y h k ",
"s Z h Z V m m y r 0 q k H ~ W W W H A F h h D H D F M m y u k T ",
"d f h u m c c 2 w r i D H H D A F G F h d d h D A A F Z M s f P ",
"9 0 d u n c c n t y u Z F A Z M m N m i 9 0 d h F A A A Z Z f z ",
"8 l 0 r n n m m n t u u M u r # & t y 7 8 z 0 h F H ! H F Z d 0 ",
"P L l 0 r r u u u i r r t n + > ) $ 7 8 l l q s F A ! H D Z j k ",
"Y U L l 0 i M h d 0 9 r t O ^ 3.h.) % L L Y g h Z G W H F h S D ",
"k Y P l q j A h f z 0 r + / -.,.4.j.) = T R k D F F H F Z Z F H ",
"u h f f g k D D k f f + / &.,.,.4.2.k.{ - Q E D F F F Z V Z F H ",
"t y u s Z D H D S h O v %.>.-.-.5.f.8.g.{ ; W H D Z Z M u V F D ",
"2 n n m C A W W A + > +.2.>.-.=.2.9.r.y.r.| ; H D D j j d j j D ",
"u y n n m Z W W & b +.,.,.=.,.q.d.1.9.w.s.e.} ; D k R z z 0 f k ",
"d Z M n m Z Z * ( &.2.2.-.3.6.7.w.r.4.q.6.u.d.} ; g T I K 8 9 j ",
"k A F B M C : @ %.*.%.%.$.<.6.#.=.f.6.:.2.=.i.f.. 9 L L K 0 d u ",
"D H H H Z M n o _ .... . .X.-.,.3.6.,.-.=.2.5.` + 9 8 K q h u u ",
"A W ! ! H C n t X _ X.X.....o.,.0.-.-.-.>.8.] + h 9 q q j B M n ",
"Z A ! ~ W C n t w X _ o.X.....X.;.,.-.;.t.[ + A h j d d h Z N n ",
"M F W W H F n t y u o _ O.....X.;.;.=.a.[ + H H D k h h h Z Z u ",
"u h D E E F m t M M u o _ @...X.-.-.p.' + W W W A F Z M M Z s h ",
"d f x R Q D h M M M u w o _ +.X.;.a.' # E W W H D F B M m u u d ",
"q 8 z U T k Z M Z Z M r : o _ &.t.[ + A W W H A Z Z h M n t r 0 ",
"g 8 l L P g h Z Z F Z M M n o _ ] O M F D D Z V s s Z Z M m s 0 ",
"h f l K l 0 u M F A A G N M t   o n m B F F B m u Z F D F Z Z g ",
"Z Z g l 8 7 y m N A Q ! H F M t n 2 n M Z C m y m Z D ! ! H D D ",
"m M h 0 9 i t M Z D ! ! ! A Z m t m s h d i u y M F W ! ! H F Z ",
"n m u d d i s V B Z H ! ! H Z M h k g g 8 0 i u F A ! ! W F M M ",
"t t M M Z Z Z Z s Z Z H W H Z h k Y U L l 0 d s F D W H D h y n ",
"m u m Z Z Z M s u Z Z D D F B M j T L K 8 i s h Z F Z h h i s y ",
"m M Z Z Z M m m m m Z Z Z B m y i 8 K 8 7 y s V Z M M u d 0 d s "
};
