/* XPM */
static char *_765874830_Group_43[] = {
/* columns rows colors chars-per-pixel */
"32 32 174 2 ",
"   c #01070E",
".  c #130B04",
"X  c #180801",
"o  c #140E09",
"O  c #1E150F",
"+  c #020B16",
"@  c #0C0F13",
"#  c #0C1114",
"$  c #1C1714",
"%  c #1C1A16",
"&  c #1D1B18",
"*  c #28180D",
"=  c #231714",
"-  c #241C1A",
";  c #2B1E1C",
":  c #341F10",
">  c #162505",
",  c #1A2B00",
"<  c #15240C",
"1  c #19270F",
"2  c #1C2A0A",
"3  c #1B310F",
"4  c #142310",
"5  c #1A2610",
"6  c #1C2B13",
"7  c #162B1A",
"8  c #1C2D19",
"9  c #1D321C",
"0  c #202E04",
"q  c #222F0A",
"w  c #243104",
"e  c #27370C",
"r  c #222C13",
"t  c #2C211D",
"y  c #362011",
"u  c #3A2211",
"i  c #35251D",
"p  c #3B291E",
"a  c #253114",
"s  c #2B3D14",
"d  c #22351C",
"f  c #28361D",
"g  c #2A391E",
"h  c #0F1821",
"j  c #280E21",
"k  c #3B1A24",
"l  c #2B2422",
"z  c #392220",
"x  c #302A2A",
"c  c #2D3B20",
"v  c #343033",
"b  c #3C373B",
"n  c #3A383D",
"m  c #46240C",
"M  c #452912",
"N  c #52311C",
"B  c #431A28",
"V  c #472924",
"C  c #512429",
"Z  c #552A29",
"A  c #5A2B2A",
"S  c #523523",
"D  c #573B24",
"F  c #5E3C27",
"G  c #5F332B",
"H  c #622F2D",
"J  c #603D25",
"K  c #66342D",
"L  c #6A332F",
"P  c #723B2F",
"I  c #1E4C04",
"U  c #1D4A16",
"Y  c #18431C",
"T  c #244E04",
"R  c #2B400D",
"E  c #245107",
"W  c #2B5405",
"Q  c #375E07",
"!  c #355B0C",
"~  c #3A5F0C",
"^  c #234712",
"/  c #234C12",
"(  c #2A4E15",
")  c #23461E",
"_  c #254A1E",
"`  c #2B4E1D",
"'  c #2D5315",
"]  c #2B5518",
"[  c #2D511C",
"{  c #325614",
"}  c #355A13",
"|  c #395D12",
" . c #33551B",
".. c #345A1A",
"X. c #3A5C1A",
"o. c #3D6406",
"O. c #3B6109",
"+. c #3C6012",
"@. c #1B4620",
"#. c #234622",
"$. c #254922",
"%. c #2B4D23",
"&. c #314020",
"*. c #2E5122",
"=. c #335424",
"-. c #385726",
";. c #335824",
":. c #3A5B23",
">. c #355628",
",. c #38572C",
"<. c #3C5B2A",
"1. c #3F6025",
"2. c #406703",
"3. c #436A06",
"4. c #41660B",
"5. c #476A0D",
"6. c #426513",
"7. c #436519",
"8. c #405F2C",
"9. c #6B402A",
"0. c #72472B",
"q. c #78482E",
"w. c #7D4C2C",
"e. c #7C4430",
"r. c #43612C",
"t. c #2F3643",
"y. c #3F3B40",
"u. c #384152",
"i. c #44414A",
"p. c #474B59",
"a. c #575157",
"s. c #444D61",
"d. c #494F61",
"f. c #4F5363",
"g. c #575765",
"h. c #5D5F6F",
"j. c #5E5F70",
"k. c #65677A",
"l. c #824F2F",
"z. c #864C31",
"x. c #934D36",
"c. c #8D5531",
"v. c #935434",
"b. c #9A5636",
"n. c #945932",
"m. c #9D5D34",
"M. c #A15E33",
"N. c #A85E39",
"B. c #A66335",
"V. c #AC6536",
"C. c #AF6739",
"Z. c #B3663A",
"A. c #B66B3A",
"S. c #BA6D3B",
"D. c #BE713B",
"F. c #C3723D",
"G. c #CB763E",
"H. c #CC7A3E",
"J. c #D0793F",
"K. c #C77540",
"L. c #CF7940",
"P. c #D17B40",
"I. c #787E99",
"U. c #7B819D",
"Y. c #7A84A3",
"T. c #8289A6",
"R. c #838BA9",
"E. c #8791AF",
"W. c #8590B3",
"Q. c #8C95B7",
"!. c #8E98BB",
"~. c #909BBD",
"^. c #939DC0",
"/. c #A0ABD1",
/* pixels */
"@.Y U ] ..;.;.;...{ W E I I U U $.$.] *.*.;.;.*.] / T I / _ $.@.",
"%.#.%.>.1.<.<.1.X.e , , , > < < 4 4 1 6 a f c <.1.! W T / _ $.$.",
"%.$.=.>.<.<.,.;.e = v b n n b b n n n y.x - - c :.} W T ^ ) $.%.",
"%.*.=.>.,.>.%.3 O O k.W.U.U.U.U.U.U.E.Y.i.o & - s  .( ^ ) _  .X.",
"*. . .=.%.#.8 . l j.T.^.Q.Q.Q.Q.Q./.W.p.h $ V t $ f %.$._ ` X.6.",
"{ {  .` #.8 O l j.!.Q.T.T.T.W.Q.Q.U.a.M M G L V t & f %.%. .{ 4.",
"! ! ' ` d = $ h.~.R.R.T.R.R.R.R.Q.u.u C.L.m.K L V & - c =. .} O.",
"~ Q ! ' 5 x h.T.Q.R.R.R.R.Q.k.v t.+ y A.L.S.b.P C p ; c ,.=. .~ ",
"4.3.o.! 2 v R.^.T.R.R.R.R.^.p.X m N q.A.S.D.D.v.x.z.i d ,. . .X.",
"6.5.3.o.0 v I.Q.R.R.R.T.R.!.s.: V.H.S.A.A.A.A.D.G.m.i 9 ;.=.;.:.",
"X.6.3.O.q v I.Q.R.R.R.R.R.!.s.: B.G.S.A.A.A.A.H.Z.K ; d =.=.-.<.",
"`  .} } q v I.Q.R.R.T.R.R.!.s.: M.F.A.A.A.S.A.e.H Z ; d %.=.>.<.",
") _ $. .r v I.Q.T.R.R.R.R.!.s.: M.G.A.A.A.F.V.A B A ; d %.=.;.<.",
") #.#.#.5 v I.Q.R.R.R.R.R.!.s.: M.F.A.A.A.A.A.A.P j = s { .. .:.",
"( $.#.#.5 v I.Q.R.R.R.T.R.!.s.: M.F.A.A.A.A.S.J.v.k - s ~ ! } X.",
"{ *.%.#.5 v I.Q.T.R.R.R.E.!.s.: M.G.S.F.S.A.A.F.b.A ; s 2.Q !  .",
"X.-.>.*.6 v I.Q.R.R.R.R.R.!.s.y M.F.S.A.A.A.A.D.b.Z t R o.! ' ] ",
":.8.<.<.r v I.Q.R.T.R.R.R.!.s.y V.c.p p c.G.A.D.A.l.i e +.] [ _ ",
">.8.r.r.r v I.Q.R.T.R.R.R.^.s.y C.F   V n.F.A.Z.H.V.p 3  .=.%.#.",
"*.<.r.r.a v I.Q.R.R.R.E.Y.!.s.y V.F i A.F.A.A.A.F.m.i 6  .=.%.#.",
"%.-.<.8.r v I.Q.R.R.T.R.E.!.s.y V.S t A.F.A.A.A.F.m.i 8 =.=.*.%.",
"`  .X.8.a v I.Q.R.R.R.R.R.!.s.y B.c.0.Z.S.A.A.A.H.B.p 7 *.*. . .",
"{ } | 7.a v I.Q.R.R.R.R.R.!.s.: B.J.F.A.A.A.A.S.F.v.i 8 $._ ` { ",
"} Q 4.5.e v I.Q.R.R.T.R.R.!.s.y M.F.S.A.A.A.A.H.N.G t 8 #.) ( ! ",
"| Q 2.3.w v I.Q.T.R.R.T.R.!.s.y A.L.A.A.A.D.Z.0.A A ; d %.$.] } ",
"X.} ~ 2.w v I.Q.R.R.R.R.R.!.d.* w.A.D.A.A.D.C.G B C ; g >.=. .X.",
"%. .| ~ w v I.Q.R.R.R.R.E.!.g.o $ w.L.A.A.A.A.D.q.j - &.8.<.:.-.",
"$.*. .} 0 v I.Q.T.R.R.T.R.!.g.o   - l.K.K.Z.A.F.Z.e.t f r.<.>.=.",
"#.$.` { q v I.Q.R.T.R.R.R.!.f.* S $ $ w.A.L.D.D.S.n.z d 8.>.%.%.",
") #.%.*.r v I.Q.R.R.R.R.R.!.p.u C.w.@ % w.D.C.D.b.Z t g :.=.` #.",
") %.` *.r v I.Q.R.R.R.R.W.!.s.u S.P.F @ % i S S.Z.A ; d  .{ ( _ ",
"%.` *.*.r v I.Q.R.R.R.R.R.!.p.X J K.F.0.9.t # D 9.k - a { ! { ` "
};
