/* XPM */
static char *_7f9e52d26834ae684a9aaf6ed9cc269[] = {
/* columns rows colors chars-per-pixel */
"32 32 216 2 ",
"   c #090B0F",
".  c #13170F",
"X  c #0D0D12",
"o  c #0D1113",
"O  c #121314",
"+  c #1B1A16",
"@  c #1D1B18",
"#  c #231D1A",
"$  c #281A1C",
"%  c #311B1F",
"&  c #173B04",
"*  c #1C2817",
"=  c #1B3A19",
"-  c #24211A",
";  c #37211F",
":  c #253819",
">  c #2E0F24",
",  c #371425",
"<  c #351E20",
"1  c #3A2121",
"2  c #471E06",
"3  c #472915",
"4  c #52341A",
"5  c #5B351D",
"6  c #64391E",
"7  c #431A28",
"8  c #482725",
"9  c #56282A",
"0  c #4B3D29",
"q  c #5B3827",
"w  c #513D36",
"e  c #633D25",
"r  c #6C392A",
"t  c #6B3D36",
"y  c #783C32",
"u  c #1D4704",
"i  c #1B471A",
"p  c #234B05",
"a  c #2A5307",
"s  c #355B0C",
"d  c #395F09",
"f  c #234413",
"g  c #274B14",
"h  c #23451D",
"j  c #2A441D",
"k  c #264A1E",
"l  c #2B4E1D",
"z  c #2D5315",
"x  c #2D511C",
"c  c #325614",
"v  c #355A13",
"b  c #395D12",
"n  c #32551B",
"m  c #355A1A",
"M  c #395B1A",
"N  c #3D6406",
"B  c #3B6109",
"V  c #3C6012",
"C  c #1B4620",
"Z  c #234622",
"A  c #254922",
"S  c #2B4D23",
"D  c #2E5122",
"F  c #335424",
"G  c #3A5B23",
"H  c #385827",
"J  c #355628",
"K  c #3C5B2A",
"L  c #3F6025",
"P  c #744918",
"I  c #436809",
"U  c #436515",
"Y  c #405F2B",
"T  c #544A36",
"R  c #664129",
"E  c #69432A",
"W  c #6A482B",
"Q  c #754B2D",
"!  c #7A4828",
"~  c #7D522E",
"^  c #6B4F32",
"/  c #684A35",
"(  c #764634",
")  c #734F33",
"_  c #67583A",
"`  c #735434",
"'  c #7C5234",
"]  c #7E563B",
"[  c #765A39",
"{  c #43612C",
"}  c #7C6139",
"|  c #555850",
" . c #6B5A47",
".. c #785A46",
"X. c #6C644F",
"o. c #756647",
"O. c #7A7142",
"+. c #696958",
"@. c #736755",
"#. c #787967",
"$. c #89542C",
"%. c #99582F",
"&. c #834333",
"*. c #8D4E33",
"=. c #885736",
"-. c #855B33",
";. c #8D5D3B",
":. c #925235",
">. c #985B39",
",. c #A75E39",
"<. c #8E652E",
"1. c #866837",
"2. c #986638",
"3. c #98753E",
"4. c #A47E2B",
"5. c #AD6539",
"6. c #A1683C",
"7. c #B36739",
"8. c #B56B3A",
"9. c #BA6D3B",
"0. c #AA7339",
"q. c #BD713D",
"w. c #B5783C",
"e. c #C16E3B",
"r. c #C4733D",
"t. c #CA783E",
"y. c #825A42",
"u. c #895F50",
"i. c #896B46",
"p. c #956541",
"a. c #986642",
"s. c #9D6A43",
"d. c #92684E",
"f. c #897547",
"g. c #947545",
"h. c #886959",
"j. c #986E51",
"k. c #966F5A",
"l. c #847759",
"z. c #94715C",
"x. c #9B7458",
"c. c #A56C44",
"v. c #B36D43",
"b. c #A67145",
"n. c #AB7446",
"m. c #AC7548",
"M. c #AB7849",
"N. c #BD7542",
"B. c #B67649",
"V. c #B37A4A",
"C. c #BC7B4E",
"Z. c #AA7655",
"A. c #BB7B53",
"S. c #B57C58",
"D. c #8F796C",
"F. c #A37D63",
"G. c #AA7F66",
"H. c #C87742",
"J. c #C37942",
"K. c #CA7A43",
"L. c #C17B4C",
"P. c #AE803E",
"I. c #B8893B",
"U. c #C38B3A",
"Y. c #E3983D",
"T. c #9D8442",
"R. c #AD904C",
"E. c #BD8258",
"W. c #998369",
"Q. c #8E8B72",
"!. c #8B8976",
"~. c #989577",
"^. c #A88564",
"/. c #B58464",
"(. c #AE9071",
"). c #A79E7D",
"_. c #C5864B",
"`. c #D4894A",
"'. c #D79847",
"]. c #CD995A",
"[. c #D99A55",
"{. c #D69F59",
"}. c #E29D44",
"|. c #E39A54",
" X c #D6AB4B",
".X c #E7A849",
"XX c #F5B24D",
"oX c #E5A75C",
"OX c #EAB352",
"+X c #C3947A",
"@X c #C5B46A",
"#X c #F2B262",
"$X c #EBC245",
"%X c #F8C74A",
"&X c #EBCF56",
"*X c #E5CA70",
"=X c #76999A",
"-X c #9A9A86",
";X c #A4A58C",
":X c #AEAE94",
">X c #BABCA4",
",X c #CA9E80",
"<X c #DCA988",
"1X c #E1B18D",
"2X c #E6BB9B",
"3X c #D6B8A3",
"4X c #E5BFA3",
"5X c #F5C29E",
"6X c #C6C5A7",
"7X c #CCCCB1",
"8X c #F9CEAB",
"9X c #E9D5B4",
"0X c #FCDBBB",
"qX c #FFE3BE",
"wX c #E5DADA",
"eX c #EFE8D7",
/* pixels */
"C i i z m m F D x f p u & & = = = = f h j j j D x a p u g A A A ",
"S Z S H Y Y K G j # + . . . O O O O O O + - - : G s a a g k Z Z ",
"S S D H K K J :   # ` g.i.i.(.W.W.W.i.g.) 1 # + j v a p f h A l ",
"S S F H H F : + # / {.oX-.R ' ' ~ F.].#Xv.9 ; - @ : z f h k n M ",
"x n F F S = +   / {.{.s.] 2.6.n._.0.=.N.:.t e w - # : k A l m U ",
"c c n l * o # / ].oXQ a.m.V.n.b.s.M.b.=.=.=.$.h.w # * : S x v I ",
"s s z l # # ^ {.#Xb.3 n.V.m.b.s.a.a.b.b.p.V.2...t 1 # # F D v B ",
"d B s z X ^ {.oX`.=.e b.m.m.m.V.V.n.c.b.V.M.5 ( 9 9 1 @ H F c s ",
"I I N s X ) |.`.E...$.m.;.Q ' a.C._.V.s.c.s.3 >.:.,.q O H F n M ",
"U I I N O R t.8.A...! =.y.z.i.E ;.V.V.c.s.;.6 8.r.r.e O H F F G ",
"M U I B X ` |.r.A...4 ) x.1X2Xz.e Q ~ s.s.) %.q.5.&.8 + F F H K ",
"l n v v X } #XJ.7.Q q +X3X!.,X5Xh.| D.d.' =.5.t.9.y < + D F J K ",
"h k l x X ` [.N.7.8.Z.<XeX=X~.qX).=XwXF.r 8.9.5.*.r < + D F H H ",
"h Z Z A O R r.9.8.8.c.y.4X9X9X0X2X3X3X..! 9.r.( > , $ # c n m G ",
"g S Z Z X ^ `.q.8.E.o.T k.<X8X8X2X+Xu.q q Z.9.:.q 9 % + B s v M ",
"c F S Z X [ oXJ.v.Q.;X>Xl. .F.(.h./ -.U.U.i.B.t.9.&.1 + N d s n ",
"M H J S X } oXJ./.o.-XeX6X!.X.[ 1.w.}.XXU.4 ] r.5.y < + N s z x ",
"G K K H X ^ `.L.^.4.f.-X7X;X~. X$X.XXXI._ +.0 5.7.,.9 O b n x k ",
"H K { { O e e./.T.%XI. .;X;X-X@X&X$X.X} +.;XT y.q.t.E O m F S Z ",
"F H { { O e H.@.P OX Xf.#.Q.-X).&X$XP. .#.!.T X.C.t.R O n F S A ",
"S H K { O R K.z. .f.1.O.+.X.l.l.g.f.1.o.| @...h.C.r.R O n F D S ",
"l n G L O R K.k.+X4X@.+.~.Q.@._ [ 3.I.<.@.2X<Xh.C.r.E O D D n n ",
"c v V U O R H.G.G.+XX.#.:X>X).R.'.}.Y.0...(.^.k.N.t.E O A k x c ",
"b d N I O R r.L.d.q 0 X.#.-X6X*X%X'.2.[ 0 / >.B.7.>.8 O Z h g s ",
"b d N I O R r.9.q.C.o.f.o.@.#.l.T.3.o.O._ S.8.r.5.y < + S S z s ",
"n b N I O e r.9.9.A.[ R.@X_ ^ 2.` _ (.R.R c.8.r.8.&.1 + J F n m ",
"D n b B X ` '.N.7.S./ 2.i.1.8.8.8.-.1.M.5 *.q.:.9 7 $ @ Y K H G ",
"A S n v X [ |.N.v.x.;.6./ 6.8.8.8.6.q 2.;.e 9.( , 8 ; + { K J F ",
"Z A l n O R H.9.A.q P ! j.8.8.8.8.8.x.Q $.2 $.5.,.8.e O Y J S S ",
"h Z S D X ) `.q.C.z./ a.8.8.8.8.8.8.8.F...] v.r.r.5.q O H F k h ",
"h A S D X [ oXJ.9.L.A.q.9.9.9.9.9.9.9.q.C.L.q.r.5.y < + n z l k ",
"S S F F o W `.H.r.r.r.r.r.r.r.r.r.r.r.r.r.r.r.K.8.&.1 + c s c x "
};
