/* XPM */
static char *_765874646_Slice_3_1_[] = {
/* columns rows colors chars-per-pixel */
"32 32 202 2 ",
"   c #38230F",
".  c #263C18",
"X  c #3E3719",
"o  c #2B3F22",
"O  c #343B22",
"+  c #471E06",
"@  c #502D16",
"#  c #4B3A1D",
"$  c #57371C",
"%  c #4A3D29",
"&  c #583C27",
"*  c #1D4B05",
"=  c #1B4718",
"-  c #244E04",
";  c #2C5404",
":  c #275209",
">  c #365E05",
",  c #355B0C",
"<  c #395F0C",
"1  c #284412",
"2  c #234A13",
"3  c #2A4D15",
"4  c #22461D",
"5  c #25491D",
"6  c #2B4E1D",
"7  c #3E4A1C",
"8  c #2D5214",
"9  c #2B5518",
"0  c #2D511D",
"q  c #325614",
"w  c #355A13",
"e  c #395C12",
"r  c #32551C",
"t  c #35591B",
"y  c #395C1C",
"u  c #3D6305",
"i  c #3A610A",
"p  c #3D6112",
"a  c #3E611A",
"s  c #1D4421",
"d  c #234522",
"f  c #254922",
"g  c #2B4D23",
"h  c #2E4E2D",
"j  c #384627",
"k  c #324E24",
"l  c #2E5123",
"z  c #2F5028",
"x  c #335424",
"c  c #385727",
"v  c #355823",
"b  c #3A5B24",
"n  c #345429",
"m  c #37582B",
"M  c #3C5B2A",
"N  c #3D5D34",
"B  c #3F6025",
"V  c #415D13",
"C  c #744918",
"Z  c #406704",
"A  c #446A06",
"S  c #41660C",
"D  c #44690C",
"F  c #486C0C",
"G  c #426613",
"H  c #466914",
"J  c #416419",
"K  c #434828",
"L  c #5A4625",
"P  c #405E2B",
"I  c #485929",
"U  c #59552B",
"Y  c #4B4836",
"T  c #5C4736",
"R  c #455736",
"E  c #57563A",
"W  c #67422E",
"Q  c #7A4927",
"!  c #734B2E",
"~  c #7D522E",
"^  c #684B39",
"/  c #714F38",
"(  c #675739",
")  c #7B5334",
"_  c #775A38",
"`  c #456623",
"'  c #43612C",
"]  c #436132",
"[  c #4C6436",
"{  c #456239",
"}  c #48653A",
"|  c #4D683D",
" . c #53643A",
".. c #547237",
"X. c #65603E",
"o. c #7F6032",
"O. c #5A5C4A",
"+. c #4F5552",
"@. c #6D5542",
"#. c #685E49",
"$. c #765747",
"%. c #5F6C47",
"&. c #57704B",
"*. c #59714D",
"=. c #5F7255",
"-. c #6B644C",
";. c #646B49",
":. c #716344",
">. c #74684B",
",. c #7A6C48",
"<. c #6E7B47",
"1. c #7A7142",
"2. c #676856",
"3. c #6C6D5A",
"4. c #756657",
"5. c #736A55",
"6. c #687958",
"7. c #797867",
"8. c #87542B",
"9. c #865B36",
"0. c #8D5D3B",
"q. c #965F39",
"w. c #8E652E",
"e. c #866A38",
"r. c #996637",
"t. c #98753E",
"y. c #A1683D",
"u. c #AC7F32",
"i. c #AA7239",
"p. c #805A40",
"a. c #895F50",
"s. c #886947",
"d. c #956541",
"f. c #986641",
"g. c #9D6A43",
"h. c #90674C",
"j. c #897547",
"k. c #856556",
"l. c #857258",
"z. c #847959",
"x. c #937551",
"c. c #93735B",
"v. c #9C775A",
"b. c #A26E44",
"n. c #A57146",
"m. c #AB7446",
"M. c #AC7548",
"N. c #B37A4A",
"B. c #B47C4A",
"V. c #8C7F7C",
"C. c #A37C65",
"Z. c #AF883B",
"A. c #BC863D",
"S. c #C38B3A",
"D. c #E3983D",
"F. c #8E824D",
"G. c #A08941",
"H. c #B7964C",
"J. c #AC8E51",
"K. c #B09353",
"L. c #8A886E",
"P. c #8A8976",
"I. c #918E76",
"U. c #989577",
"Y. c #AE9D60",
"T. c #A39F7C",
"R. c #AE9D7E",
"E. c #C1844C",
"W. c #D59C43",
"Q. c #E29D44",
"!. c #D4AD49",
"~. c #D4B141",
"^. c #E7A849",
"/. c #E0B846",
"(. c #F4B24D",
"). c #C3947A",
"_. c #C0AA65",
"`. c #CABE6E",
"'. c #EBC245",
"]. c #F8C74A",
"[. c #EBCF56",
"{. c #E5CA70",
"}. c #76999A",
"|. c #9A9A86",
" X c #A3A38B",
".X c #A8AA8F",
"XX c #AEAE94",
"oX c #BABCA4",
"OX c #CA9E80",
"+X c #DBA988",
"@X c #E1B18D",
"#X c #E6BB9B",
"$X c #D6B8A3",
"%X c #E5BFA3",
"&X c #F5C29E",
"*X c #C6C5A6",
"=X c #CCCCB1",
"-X c #F9CEAB",
";X c #E9D5B3",
":X c #FCDBBB",
">X c #E5DADA",
",X c #EFE8D7",
/* pixels */
"s = = 9 w t v l r q : - * * = 5 s 5 6 0 x x v x 9 : - * 2 5 s f ",
"f d g c B N B B J S u > ; - 2 d f f l v b M ] M v w ; - 2 5 d f ",
"g g z m B N m B p Z Z u > v 6.=.=.&.l v M P ' ' B w ; - 2 = f 0 ",
"g z x x m z g g , u Z V . # ) 9.~ c.[ c n m M ' B t 3 2 4 5 0 a ",
"0 x r x l f d 5 3 , e _ 9.q.y.m.H.i.) I r U L R ' n k 5 f 6 w H ",
"q w r 6 d s s = 2 2 # f.M.N.m.b.b.M.m./ U _ 8.l.| n n k g x w S ",
", , q 6 d d d d = o @ M.M.M.n.b.q.f.n.n.d.N.r.-.{ c M c x 0 w i ",
"< > , 3 d d d d 4 o & n.M.M.M.N.B.M.b.n.N.M.$ 7 n c P M m x r < ",
"S A u , 3 5 6 f ] ( 8.M.0.! ) f.B.E.N.g.b.f.  6 x M ' P c x t t ",
"G F A u , 8 0 r ..$.Q 9.p.c.a.W q.B.B.b.g.9.# r n m P M n r v b ",
"y G S u < w v t ..$.@ / C.@X%Xv.W ! ~ g.f./ 7 t n n b m x x v M ",
"6 q w w e b b b V O & OX$XP.+X#Xk.+.V.h.) U P M m n n x g x n M ",
"d 5 g 0 v b b M c v ;.+X,X}.U.:XR.}.>Xv.X P P P c v x k l x n c ",
"4 d d d z c P ' m x R $.-X;X-X,X#X$X$X$.o M M P b b t t q w t b ",
"3 f d d f x P ' M *.O.^ c.+X-X-X@X).a.% % %.c n b y J i i , w y ",
"q l g d f x M P ] 7..XoX7.@.C.C.k./ 9.E.S.,.{ x y a H D Z > w q ",
"y c n k g g n n <.X.|.,X*XL.>.X.e.u.W.(.S.# j g r p D A u , 8 0 ",
"y M M M n n g n F.G.s.|.=X.XU.!.'.(.(.E.#.3.O k r p u u i t 0 5 ",
"c P ' ' M n d *.F.].Z.%. X X|.`.[.].^.9.2.|.O.R t w > , r x g d ",
"n c ' ' M h h +.C /.~.s.7.I.U.T.[.'.Z.( 7.L.Y O.[ w w 8 r n g f ",
"g n M ' M n h 2.( j.o.<.3.5.z.l.x.j.e.:.O.5.@.4.[ b q r r v l g ",
"6 r y ' b x n 4.).&X4.3.U.L.>.( _ t.A.w.>.#X+Xl.| n x g g l r r ",
"q , p J ` v n 3.C.OX2.7.XXoX XK.W.Q.D.i._ R.C.5.B n x f f f 3 q ",
"e < u D H a v N -.& % -.7.|.*X{.].W.r.o.% T / [ x x x g f 4 3 , ",
"e > u A D y q x x  .:.F.:.3.7.z.G.t.:.1.( ;.v k 0 x v x g f 8 w ",
"t w u Z u , 6 g z | ( J._.( K I K E Y.K.W R g 5 6 l c c n x r y ",
"z r y u > q 5 g z &.^ r.j.U c f d K e.n.$ 5 g f f x b ' ' b c b ",
"f g q w , 3 5 f M 5.9.y.^ I x 5 5 k & q.9.# k 5 g n P ' ' M n x ",
"d f 6 q 8 r 0 g | & C Q -.P x g r y %.! 8.+ 1 3 x c ' ' ' m g g ",
"5 d f l x r r x | 5.^ ( ' c x r y J D <.( ( I r n M M b c r 6 d ",
"5 f f x x n g l z N } c c m x 6 y G A D ` ` t r n n x x r 8 6 5 ",
"6 g l x x g f g f g x v c z f 5 8 i Z > 8 6 6 x x g 6 6 q , q 0 "
};
