/* XPM */
static char *_765874573_Rectangle_152[] = {
/* columns rows colors chars-per-pixel */
"32 32 168 2 ",
"   c #1C0E26",
".  c #1E1128",
"X  c #241529",
"o  c #2A1628",
"O  c #26192D",
"+  c #2C1C2D",
"@  c #341C2C",
"#  c #3D1D2C",
"$  c #361F30",
"%  c #2F202F",
"&  c #33222F",
"*  c #3C232E",
"=  c #352330",
"-  c #3C2631",
";  c #3F2832",
":  c #451F2D",
">  c #44252E",
",  c #4A232E",
"<  c #45282F",
"1  c #54252E",
"2  c #53282F",
"3  c #592C2E",
"4  c #442632",
"5  c #4B2632",
"6  c #432A32",
"7  c #4B2C33",
"8  c #522D33",
"9  c #582D32",
"0  c #463137",
"q  c #4D3134",
"w  c #4D3739",
"e  c #543134",
"r  c #5B3335",
"t  c #563836",
"y  c #5C3A36",
"u  c #513739",
"i  c #513C3C",
"p  c #5B3C3A",
"a  c #632D2F",
"s  c #62392E",
"d  c #622E31",
"f  c #633536",
"g  c #693534",
"h  c #643935",
"j  c #6B3C35",
"k  c #663738",
"l  c #693638",
"z  c #633B39",
"x  c #6D3B39",
"c  c #733C35",
"v  c #743D39",
"b  c #7A3F39",
"n  c #5B413E",
"m  c #664037",
"M  c #6A4036",
"N  c #654138",
"B  c #6A4339",
"V  c #6C493D",
"C  c #734235",
"Z  c #73433A",
"A  c #7B423B",
"S  c #7B4C3B",
"D  c #7E513E",
"F  c #5D4642",
"G  c #5F4A45",
"H  c #634A43",
"J  c #694D44",
"K  c #6A5249",
"L  c #715245",
"P  c #7D5C47",
"I  c #71584A",
"U  c #7A6351",
"Y  c #834435",
"T  c #81453A",
"R  c #854E3B",
"E  c #8C4B3D",
"W  c #924E3D",
"Q  c #84533C",
"!  c #8D523E",
"~  c #8B593F",
"^  c #9A5637",
"/  c #94553D",
"(  c #955B3D",
")  c #9D5D3C",
"_  c #A55E36",
"`  c #A35D3B",
"'  c #A4633D",
"]  c #A9663E",
"[  c #AC683F",
"{  c #B46B3E",
"}  c #BD703C",
"|  c #8B5544",
" . c #975C40",
".. c #9B5C40",
"X. c #915D4A",
"o. c #985F49",
"O. c #83624D",
"+. c #8C674E",
"@. c #916044",
"#. c #9C6241",
"$. c #866A54",
"%. c #8C6E55",
"&. c #946A52",
"*. c #90765B",
"=. c #A46542",
"-. c #A86640",
";. c #A66943",
":. c #AC6C43",
">. c #B26E42",
",. c #A0704D",
"<. c #AB734C",
"1. c #B47144",
"2. c #BB7444",
"3. c #BE7A47",
"4. c #B1764B",
"5. c #B97A4C",
"6. c #A17353",
"7. c #AB7A53",
"8. c #A37C5C",
"9. c #B27B52",
"0. c #C27542",
"q. c #C27845",
"w. c #C27B49",
"e. c #BF814F",
"r. c #A0805F",
"t. c #AD865F",
"y. c #B78355",
"u. c #BD8857",
"i. c #B4835C",
"p. c #BA875A",
"a. c #B6885C",
"s. c #BA8A5D",
"d. c #AA8964",
"f. c #B28C63",
"g. c #B98F66",
"h. c #AD916B",
"j. c #B69166",
"k. c #BD9264",
"l. c #BC9569",
"z. c #BF9A6B",
"x. c #C1814F",
"c. c #C28553",
"v. c #C48D5C",
"b. c #C7915E",
"n. c #C9935D",
"m. c #D2945B",
"M. c #C29362",
"N. c #CD9761",
"B. c #CD9C66",
"V. c #C09769",
"C. c #C39B6B",
"Z. c #CE9E69",
"A. c #D49E65",
"S. c #C3A16F",
"D. c #CBA26D",
"F. c #D3A66E",
"G. c #D3A96F",
"H. c #C6A271",
"J. c #CEA772",
"K. c #D2A771",
"L. c #D3AB73",
"P. c #DAAE73",
"I. c #DBB176",
"U. c #D3B078",
"Y. c #DFB97D",
"T. c #E5BB7C",
"R. c #EDC07E",
"E. c #F0CB87",
/* pixels */
"C.s.:.-.:.Q q O & 7 j A T g @ 0 *.D.v.=.` =.1.:.j * F f.P.H.C.C.",
"u.y.>.>.1.~ q + & 6 e z z 8 @ 0 +.v.c.:.:.:.:. .9 @ K z.I.v.9.9.",
":.-.-.1.1.Q q + & 6 - 6 6 = + 7 | >.1.:.:.:. .A : @ K l.F.4.) ) ",
"/ !  .#...S 7 % - - - & = = + 7 x ^ ) ......E v , & n &.4.:._ _ ",
"A v A T A k 6 = - - - - ; * & 6 f A T A A A A A 9 - 6 x | =.:.] ",
"r 5 e 9 r 7 - & = - ; - & + o o # , 5 7 4 5 9 f 7 ; 4 d Y / ) / ",
"4 $ ; 6 6 6 - & * - ; * @ @ @ @ @ @ @ & $ = - 6 - - 8 x T T b c ",
"- O = = = - q e e 6 * 6 n L L J J F n y y y 7 & % - 7 r f 9 5 : ",
"; + - = = q h A v 9 @ w %.l.l.f.j.t.,.( ' ( B - % - 6 4 ; ; @ o ",
"$ X + + + q b W W f # i d.R.T.I.Y.P.v.1.0.2.D < O = & # * * @ o ",
"o   o X O 7 v W E f @ u r.T.I.J.U.D.p.[ { :.S 6 . + ; 9 d d 1 1 ",
"H F G n t r h x l 8 @ e &.B.B.k.k.s.<.=.>.-.V - = q V | o.X.X.X.",
"d.h.h.7.#.C q - 7 * @ u @.x.e.4.<.<.;.=.>.] N - 7 Q <.i.g.g.l.V.",
"Z.P.K.m.w.R 6 O + & + q R ' ) ^ ` ' -.:.5.:.N * r -.m.K.L.Z.D.L.",
"9.c.y.5.2.Q 6 O & = & 7 c E A R ( :.1.>.3.>.B = 3 ' m.L.H.y.5.c.",
"' ] ' { 1.Q q @ ; - - 6 r g g v / ;.;.#.:.' z * e ) c.M.a.;._ ] ",
"] >.[ 1.2.~ q + = ; - ; ; 8 k A E ! ! |  .E 9 - r #.5.9.<.=.` ' ",
"=.;.=.:.-.Z 7 + = - - - = 4 y v x g f g x x 4 - N #.1.] ' -.-.-.",
"E | / E A 3 @   + + + + + ; 7 q 7 4 ; 4 7 7 $ - B ;.3.:.[ :.:.' ",
"l f j Z A z q 6 6 6 6 6 ; ; - - - ; ; - - = + = B #.>.=.#.' ) ^ ",
"9 @ 5 J &.8.&.O.L S R Z q = + ; 7 k x r 7 = + = y R / E Q ! T Y ",
"*   o L l.T.L.M.1.>.2.( y + + ; r b T c e - % - 8 x A v Z v g a ",
"*   + I S.E.E.B.5.{ 0.#.z + X o # , 2 , @ o X * r v b b b b 3 , ",
"; X @ L f.I.D.s.<.] 1. .y + $ ; ; ; * ; ; ; & - e x A b b A 9 @ ",
"; o & J <.N.p.<.;.:.q...q = G %.$.U U U %.$.F - @ 7 r r y y 4 + ",
"- + = N #.1.:.=.-.>.2.~ < 6 %.J.K.C.V.C.L.C.O.; X - - - 6 4 = @ ",
"; + = j ` 0.>.>.2.-.~ h < z 6.A.A.v.v.b.A.N.+.8 # 7 7 - = = = = ",
"; + = N =.2.>.>.2.~ u * 8 A #.1.:.-.:.-.1.:.~ x l v r 4 = - - = ",
"; + + 7 B S S D Q p = + 9 W ' [ 1.<.7.<.;.) / / W E f @ . o + + ",
"; + & & - ; 6 6 - - & 6 f E _ 1.u.z.H.V.y.' ' ' ..T 9 # X o + O ",
"* > m M s e 7 4 7 4 * 6 8 g c @.s.T.P.n.5.[ } } / g y L P P V s ",
"* s ) 1.' ! v l v f 7 * > * @ p 8.L.n.:.' [ 2.>.C ; G t.G.D.7.) "
};
